<svg xmlns="http://www.w3.org/2000/svg" width="52.332" height="58.609" viewBox="0 0 52.332 58.609">
  <path id="Subtraction_65" data-name="Subtraction 65" d="M25.663,57.609A9.365,9.365,0,0,1,20.9,56.3L4.767,46.772a9.634,9.634,0,0,1-3.491-3.566A9.933,9.933,0,0,1,0,38.332V19.274A9.929,9.929,0,0,1,1.276,14.4a9.653,9.653,0,0,1,3.491-3.568L20.9,1.307a9.339,9.339,0,0,1,9.528,0l16.136,9.527A9.677,9.677,0,0,1,50.053,14.4a9.921,9.921,0,0,1,1.279,4.872V38.332a9.926,9.926,0,0,1-1.279,4.875,9.657,9.657,0,0,1-3.488,3.566L30.429,56.3A9.378,9.378,0,0,1,25.663,57.609ZM12.363,22.6a8.1,8.1,0,0,0,0,16.2,7.824,7.824,0,0,0,5.013-1.831,1.6,1.6,0,0,0-.125-3.19,1.559,1.559,0,0,0-1.49,1.117,5.282,5.282,0,0,1-1.561.92,5.242,5.242,0,0,1-5.6-1.263,5.537,5.537,0,0,1,0-7.706,5.247,5.247,0,0,1,7.809.3,10.436,10.436,0,0,1,.883-1.838,9.472,9.472,0,0,1,3.3-3.152,9.146,9.146,0,0,1,8.094-.461,9.27,9.27,0,0,1,2.937,1.993A9.368,9.368,0,0,0,15.3,23.175,7.727,7.727,0,0,0,12.363,22.6Zm22.432-.592-13.1,13.414,3.789,0L38.59,22.009l-3.784,0,0,0,0,0h0l0-.006Zm3.316,1.913,4.516,4.633-4.509,4.611h4.249l4.516-4.619L42.36,23.921Z" transform="translate(0.5 0.5)" fill="#fff" stroke="rgba(0,0,0,0)" stroke-miterlimit="10" stroke-width="1"/>
</svg>
