<svg id="Instagram-icon" xmlns="http://www.w3.org/2000/svg" width="22.298" height="22.298" viewBox="0 0 22.298 22.298">
  <path id="Instagram-icon-2" data-name="Instagram-icon" d="M9.5,3A6.511,6.511,0,0,0,3,9.506V18.8a6.511,6.511,0,0,0,6.506,6.5H18.8a6.511,6.511,0,0,0,6.5-6.506V9.5A6.511,6.511,0,0,0,18.793,3ZM20.653,6.716a.929.929,0,1,1-.929.929A.929.929,0,0,1,20.653,6.716Zm-6.5,1.858a5.575,5.575,0,1,1-5.575,5.575A5.58,5.58,0,0,1,14.149,8.575Zm0,1.858a3.716,3.716,0,1,0,3.716,3.716,3.716,3.716,0,0,0-3.716-3.716Z" transform="translate(-3 -3)" fill="#fff"/>
</svg>
