<svg xmlns="http://www.w3.org/2000/svg" width="390.512" height="428.482" viewBox="0 0 390.512 428.482">
  <path id="Subtraction_66" data-name="Subtraction 66" d="M23170.232,10983.48a72.5,72.5,0,0,1-36.232-9.715l-122.732-70.884a72.446,72.446,0,0,1-36.27-62.786v-141.737a72.469,72.469,0,0,1,36.27-62.78l122.732-70.86a72.428,72.428,0,0,1,72.484,0l122.756,70.86a72.568,72.568,0,0,1,36.27,62.78V10840.1a72.527,72.527,0,0,1-36.27,62.786l-122.756,70.884a72.47,72.47,0,0,1-36.252,9.715Zm-101.193-260.395a60.244,60.244,0,1,0,38.145,106.871,11.879,11.879,0,1,0-12.291-15.416,40.553,40.553,0,1,1-1.316-63.468,40.925,40.925,0,0,1,6.213,5.854,76.674,76.674,0,0,1,6.715-13.663,71.237,71.237,0,0,1,25.117-23.444,70.772,70.772,0,0,1,83.918,11.394,72.067,72.067,0,0,0-124.146-3.841A59.946,59.946,0,0,0,23069.039,10723.086Zm170.652-4.4-99.676,99.77,28.828-.035,99.723-99.723-28.793.035-.018-.018-.018.018h-.018l-.029-.046Zm25.227,14.231h0l34.357,34.457-34.3,34.3h32.328l34.352-34.352-34.4-34.4Z" transform="translate(-22974.998 -10554.998)"/>
</svg>
