<svg xmlns="http://www.w3.org/2000/svg" width="390.508" height="428.48" viewBox="0 0 390.508 428.48">
  <g id="Group_498" data-name="Group 498" transform="translate(-136 -457.872)">
    <g id="Group_433" data-name="Group 433" transform="translate(136 457.872)">
      <path id="Path_494" data-name="Path 494" d="M390.508,285.1V143.356a72.573,72.573,0,0,0-36.267-62.78L231.483,9.718a72.444,72.444,0,0,0-72.484,0L36.267,80.576A72.468,72.468,0,0,0,0,143.356V285.1a72.407,72.407,0,0,0,36.267,62.78L159,418.763a72.444,72.444,0,0,0,72.484,0l122.757-70.884a72.512,72.512,0,0,0,36.267-62.78" transform="translate(0 -0.001)"/>
    </g>
    <g id="Group_488" data-name="Group 488" transform="translate(169.801 596.645)">
      <path id="Path_541" data-name="Path 541" d="M81.525,26.725,115.88,61.184l-34.3,34.3h32.327L148.259,61.13l-34.407-34.4Z" transform="translate(174.597 12.416)" fill="#fff"/>
      <path id="Path_542" data-name="Path 542" d="M40.337,116.269l28.827-.036L168.883,16.51l-28.788.036-.018-.018-.018.018h-.021l-.024-.049Z" transform="translate(90.884 8.41)" fill="#fff"/>
      <path id="Path_543" data-name="Path 543" d="M60.244,29.313A60.085,60.085,0,0,1,82.6,33.6,72.069,72.069,0,0,1,206.743,37.44,70.845,70.845,0,0,0,97.705,49.488a76.624,76.624,0,0,0-6.714,13.668A40.526,40.526,0,1,0,86.1,120.768a11.882,11.882,0,1,1,12.288,15.417A60.243,60.243,0,1,1,60.244,29.313" transform="translate(0 0)" fill="#fff"/>
    </g>
  </g>
</svg>
