<svg xmlns="http://www.w3.org/2000/svg" width="891.741" height="168.333" viewBox="0 0 891.741 168.333">
  <g id="Group_491" data-name="Group 491" transform="translate(-141.008 -9.941)">
    <g id="Logo" transform="translate(318.749 29.456)">
      <text id="CloudifyTests.io" transform="translate(0 97)" fill="#55d4ab" font-size="92" font-family="Poppins-Medium, Poppins" font-weight="500"><tspan x="0" y="0">Cloudify</tspan><tspan y="0" font-family="Poppins-Light, Poppins" font-weight="300">Tests.io</tspan></text>
    </g>
    <path id="Subtraction_65" data-name="Subtraction 65" d="M76.068,167.333a28.191,28.191,0,0,1-14.117-3.8l-47.82-27.682A28.288,28.288,0,0,1,0,111.339V55.985A28.312,28.312,0,0,1,14.131,31.467L61.951,3.8a28.168,28.168,0,0,1,28.242,0l47.829,27.672a28.354,28.354,0,0,1,14.131,24.518v55.354a28.33,28.33,0,0,1-14.131,24.517L90.192,163.538A28.231,28.231,0,0,1,76.068,167.333ZM36.644,65.642A23.527,23.527,0,1,0,51.5,107.379a4.64,4.64,0,0,0-.372-9.265,4.611,4.611,0,0,0-4.416,3.244,15.83,15.83,0,1,1,1.907-22.5,30.053,30.053,0,0,1,2.616-5.338,27.841,27.841,0,0,1,9.787-9.154,27.532,27.532,0,0,1,32.7,4.449,28.047,28.047,0,0,0-48.371-1.5A23.313,23.313,0,0,0,36.644,65.642Zm66.491-1.72L64.3,102.885l11.232-.014,38.853-38.945-11.217.014-.007-.007-.007.007h-.008l-.01-.019Zm9.829,5.558,13.386,13.457L112.984,96.332h12.6l13.385-13.416L125.558,69.48Z" transform="translate(141.508 10.441)" stroke="rgba(0,0,0,0)" stroke-miterlimit="10" stroke-width="1"/>
  </g>
</svg>
