<svg id="Component_2_1" data-name="Component 2 – 1" xmlns="http://www.w3.org/2000/svg" xmlns:xlink="http://www.w3.org/1999/xlink" width="25.452" height="20.949" viewBox="0 0 25.452 20.949">
  <defs>
    <clipPath id="clip-path">
      <rect id="Rectangle_17580" data-name="Rectangle 17580" width="25.452" height="20.949" fill="#899ab4"/>
    </clipPath>
  </defs>
  <g id="Group_242" data-name="Group 242" clip-path="url(#clip-path)">
    <path id="Path_390" data-name="Path 390" d="M25.347,2.511a10.509,10.509,0,0,1-2.574.734c.414-.069,1.022-.819,1.266-1.122A4.726,4.726,0,0,0,24.893.565c.022-.044.038-.1-.006-.134a.146.146,0,0,0-.136.011A13.121,13.121,0,0,1,21.7,1.61a.2.2,0,0,1-.21-.056,2.478,2.478,0,0,0-.266-.272A5.388,5.388,0,0,0,19.743.376,5.144,5.144,0,0,0,17.476.011a5.417,5.417,0,0,0-2.151.607A5.543,5.543,0,0,0,13.59,2.035a5.329,5.329,0,0,0-1.036,2.076A5.618,5.618,0,0,0,12.5,6.3c.017.123.005.139-.105.123A16.3,16.3,0,0,1,1.907,1.088c-.123-.14-.189-.14-.289.011a5.316,5.316,0,0,0,.906,6.282c.206.195.417.39.645.567a5.346,5.346,0,0,1-2.024-.567C1.023,7.3.961,7.348.95,7.487a3.17,3.17,0,0,0,.034.6A5.375,5.375,0,0,0,4.3,12.374a3.162,3.162,0,0,0,.672.206,5.989,5.989,0,0,1-1.984.061c-.145-.028-.2.045-.145.184a5.584,5.584,0,0,0,4.17,3.492c.189.033.378.033.568.078-.012.017-.023.017-.034.033-.468.714-2.091,1.245-2.848,1.509a10.192,10.192,0,0,1-4.324.554c-.233-.034-.282-.031-.345,0s-.008.1.066.155c.3.195.6.368.9.534a14.218,14.218,0,0,0,2.891,1.157c5.2,1.435,11.047.38,14.949-3.5C21.9,13.8,22.972,9.6,22.972,5.4c0-.165.194-.255.31-.342a10.132,10.132,0,0,0,2.035-2.116.643.643,0,0,0,.134-.4V2.511c0-.067,0-.047-.1,0" transform="translate(0 0)" fill="#899ab4"/>
  </g>
</svg>
