<svg id="Twitter-icon" xmlns="http://www.w3.org/2000/svg" width="24.157" height="19.631" viewBox="0 0 24.157 19.631">
  <path id="Twitter-icon-2" data-name="Twitter-icon" d="M26.156,6.76a9.893,9.893,0,0,1-2.847.78A4.964,4.964,0,0,0,25.488,4.8,9.937,9.937,0,0,1,22.341,6a4.957,4.957,0,0,0-8.573,3.39,5.011,5.011,0,0,0,.128,1.129A14.07,14.07,0,0,1,3.681,5.342a4.965,4.965,0,0,0,1.534,6.617,4.946,4.946,0,0,1-2.245-.62V11.4a4.957,4.957,0,0,0,3.976,4.859,4.958,4.958,0,0,1-1.306.174,5.046,5.046,0,0,1-.932-.088,4.962,4.962,0,0,0,4.63,3.442A10,10,0,0,1,2,21.841a14.031,14.031,0,0,0,7.6,2.226,14,14,0,0,0,14.1-14.1q0-.322-.014-.641A10.085,10.085,0,0,0,26.156,6.76Z" transform="translate(-1.999 -4.436)" fill="#fff"/>
</svg>
