<svg id="Component_5_1" data-name="Component 5 – 1" xmlns="http://www.w3.org/2000/svg" xmlns:xlink="http://www.w3.org/1999/xlink" width="20.897" height="20.949" viewBox="0 0 20.897 20.949">
  <defs>
    <clipPath id="clip-path">
      <rect id="Rectangle_17579" data-name="Rectangle 17579" width="20.897" height="20.949" fill="#899ab4"/>
    </clipPath>
  </defs>
  <g id="Group_240" data-name="Group 240" clip-path="url(#clip-path)">
    <path id="Path_388" data-name="Path 388" d="M0,20.948l1.5-5.6a10.369,10.369,0,1,1,4.13,4.095Zm5.912-3.609.355.211A8.418,8.418,0,1,0,3.387,14.7l.218.358-.838,3.128Z" transform="translate(0 0)" fill="#899ab4"/>
    <path id="Path_389" data-name="Path 389" d="M18.221,15.657a1.739,1.739,0,0,0-1.482-.334c-.385.157-.631.76-.88,1.067a.368.368,0,0,1-.477.1,6.713,6.713,0,0,1-3.349-2.869.411.411,0,0,1,.052-.561,2.272,2.272,0,0,0,.609-.988,2.16,2.16,0,0,0-.272-1.169,2.767,2.767,0,0,0-.863-1.3,1.183,1.183,0,0,0-1.284.191,2.608,2.608,0,0,0-.9,2.066,2.929,2.929,0,0,0,.081.655,5.415,5.415,0,0,0,.629,1.449,11.511,11.511,0,0,0,.656,1,10.146,10.146,0,0,0,2.848,2.644,8.609,8.609,0,0,0,1.776.844,3.941,3.941,0,0,0,2.067.327A2.5,2.5,0,0,0,19.3,17.387a1.214,1.214,0,0,0,.087-.712c-.107-.49-.77-.782-1.167-1.018" transform="translate(-3.822 -3.872)" fill="#899ab4" fill-rule="evenodd"/>
  </g>
</svg>
