<svg id="Youtube-icon" xmlns="http://www.w3.org/2000/svg" width="24.156" height="20.442" viewBox="0 0 24.156 20.442">
  <path id="Youtube-icon-2" data-name="Youtube-icon" d="M14.078,4a57.355,57.355,0,0,0-8.937.974l-.013.015A3.707,3.707,0,0,0,2,8.645V19.8A3.716,3.716,0,0,0,5.138,23.46l0,.005a57.252,57.252,0,0,0,8.937.976,57.251,57.251,0,0,0,8.937-.976l0,0A3.716,3.716,0,0,0,26.156,19.8V8.645A3.716,3.716,0,0,0,23.019,4.98l0-.005A57.354,57.354,0,0,0,14.078,4ZM11.291,9.945l7.433,4.275L11.291,18.5Z" transform="translate(-2 -4)" fill="#fff"/>
</svg>
